<svg width="180" height="180" viewBox="0 0 180 180" fill="none" xmlns="http://www.w3.org/2000/svg">
    <g clip-path="url(#clip0_1177_6437)">
        <path d="M90 126.6C83.7 126.6 78.1 123.4 74.9 118C74.5 117.3 73.8 116.9 73 116.9C72.6 116.9 72.1 117 71.6 117.4L65.4 122.6C63.7 124 61.6 124.8 59.4 124.8C54.2 124.8 50 120.6 50 115.4V65.1001C50 43.0001 67.7 24.8001 89.5 24.6001H90C112.1 24.6001 130 42.5001 130 64.6001V115.4C130 118 129 120.5 127.1 122.2C125.4 123.8 123 124.8 120.6 124.8C118.4 124.8 116.3 124 114.6 122.6L108.4 117.4C107.9 117 107.4 116.9 107 116.9C106.2 116.9 105.5 117.3 105.1 118C101.9 123.3 96.3 126.6 90 126.6Z" fill="#6B53DD"/>
        <path d="M90 28.6001C109.9 28.6001 126 44.7001 126 64.6001V115.4C126 118.6 123.4 120.8 120.6 120.8C119.4 120.8 118.2 120.4 117.2 119.5L111 114.3C109.8 113.3 108.4 112.8 107 112.8C104.9 112.8 102.8 113.9 101.6 115.9C99 120.3 94.5 122.6 90 122.6C85.5 122.6 81 120.4 78.4 115.9C77.2 113.9 75.1 112.8 73 112.8C71.6 112.8 70.2 113.3 69 114.3L62.8 119.5C61.8 120.4 60.5 120.8 59.4 120.8C56.6 120.8 54 118.6 54 115.4V65.1001C54 45.3001 69.7 28.9001 89.5 28.6001C89.7 28.6001 89.8 28.6001 90 28.6001ZM90 20.6001C89.8 20.6001 89.6 20.6001 89.4 20.6001C65.5 20.9001 46 40.8001 46 65.1001V115.3C46 122.7 52 128.7 59.4 128.7C62.5 128.7 65.6 127.6 68 125.6L72.6 121.7C76.6 127.3 83 130.6 90 130.6C97 130.6 103.3 127.3 107.4 121.7L112 125.6C114.4 127.6 117.5 128.7 120.6 128.7C128 128.7 134 122.7 134 115.3V64.5001C134 40.3001 114.3 20.6001 90 20.6001Z" fill="black"/>
        <path d="M77.3996 75.5C75.8996 75.5 74.5996 74.2 74.5996 72.7V64.3C74.5996 62.8 75.8996 61.5 77.3996 61.5C78.8996 61.5 80.1996 62.8 80.1996 64.3V72.7C80.1996 74.3 78.8996 75.5 77.3996 75.5Z" fill="black"/>
        <path d="M106.8 76C105.3 76 104 74.7 104 73.2V64.8C104 63.3 105.3 62 106.8 62C108.3 62 109.6 63.3 109.6 64.8V73.2C109.6 74.7 108.3 76 106.8 76Z" fill="black"/>
    </g>
    <defs>
        <clipPath id="clip0_1177_6437">
            <rect width="180" height="180" fill="white"/>
        </clipPath>
    </defs>
</svg>
