<svg width="180" height="180" viewBox="0 0 180 180" fill="none" xmlns="http://www.w3.org/2000/svg">
<g clip-path="url(#clip0_1298_7820)">
<path d="M88.4001 165C127.502 165 159.2 155.643 159.2 144.1C159.2 132.557 127.502 123.2 88.4001 123.2C49.2983 123.2 17.6001 132.557 17.6001 144.1C17.6001 155.643 49.2983 165 88.4001 165Z" fill="#D7D4E9"/>
<path d="M48.9001 145.6C42.6001 143.8 37.9001 138.4 38.0001 131.8C38.1001 112.6 43.9001 75.3003 87.9001 75.3003C135 75.3003 140.6 117.9 141.2 130.4C141.5 136.5 137.1 142.6 132.1 144.3C111.4 151.4 79.4001 154.5 48.9001 145.6Z" fill="#6B53DD" stroke="black" stroke-width="8" stroke-miterlimit="10"/>
<path d="M110.8 105L100.5 115.2" stroke="black" stroke-width="5" stroke-miterlimit="10" stroke-linecap="round"/>
<path d="M100.5 105L110.8 115.2" stroke="black" stroke-width="5" stroke-miterlimit="10" stroke-linecap="round"/>
<path d="M76.5999 105L66.3999 115.2" stroke="black" stroke-width="5" stroke-miterlimit="10" stroke-linecap="round"/>
<path d="M66.3999 105L76.5999 115.2" stroke="black" stroke-width="5" stroke-miterlimit="10" stroke-linecap="round"/>
<path d="M90.1002 59.5002C94.1871 59.5002 97.5002 56.1871 97.5002 52.1002C97.5002 48.0133 94.1871 44.7002 90.1002 44.7002C86.0133 44.7002 82.7002 48.0133 82.7002 52.1002C82.7002 56.1871 86.0133 59.5002 90.1002 59.5002Z" fill="#6B53DD" stroke="black" stroke-width="4" stroke-miterlimit="10"/>
<path d="M88.9 75.8004C88.3 74.2004 87.7 71.8004 87.5 68.7004C87.3 64.5004 88.2 61.2004 88.9 59.4004" fill="#6B53DD"/>
<path d="M88.9 75.8004C88.3 74.2004 87.7 71.8004 87.5 68.7004C87.3 64.5004 88.2 61.2004 88.9 59.4004" stroke="black" stroke-width="4" stroke-miterlimit="10"/>
<path d="M93.2002 36.0004C96.8002 35.5004 100.3 36.4004 103.2 39.0004C105.5 41.1004 106.7 44.1004 106.8 47.0004" stroke="#EDEEF0" stroke-width="4" stroke-miterlimit="10" stroke-linecap="round"/>
<path d="M93.1001 28.8001C98.3001 27.2001 105.5 30.0001 109 33.3001C113 37.1001 115 42.9001 114.6 46.3001" stroke="#EDEEF0" stroke-width="4" stroke-miterlimit="10" stroke-linecap="round"/>
<path d="M93.2002 20.1C101.1 18.5 109.7 21.1 115.4 26.2C122.2 32.3 123.6 41.2 122.5 45.6" stroke="#EDEEF0" stroke-width="4" stroke-miterlimit="10" stroke-linecap="round"/>
<path d="M133.7 46.7004L139.6 45.9004L134.3 52.8004L140.5 52.0004" stroke="#D5FE40" stroke-width="2" stroke-miterlimit="10" stroke-linecap="round" stroke-linejoin="round"/>
<path d="M142.6 30.2002L149 31.4002L141.1 36.9002L147.9 38.2002" stroke="#D5FE40" stroke-width="2.5" stroke-miterlimit="10" stroke-linecap="round" stroke-linejoin="round"/>
<path d="M155.7 39.1001L159.7 39.8001L154.8 43.2001L159 44.0001" stroke="#D5FE40" stroke-width="1.5" stroke-miterlimit="10" stroke-linecap="round" stroke-linejoin="round"/>
<path d="M69.6999 34.2001C71.5224 34.2001 72.9999 32.7226 72.9999 30.9001C72.9999 29.0776 71.5224 27.6001 69.6999 27.6001C67.8774 27.6001 66.3999 29.0776 66.3999 30.9001C66.3999 32.7226 67.8774 34.2001 69.6999 34.2001Z" stroke="#D6E7F1" stroke-width="2" stroke-miterlimit="10"/>
<path d="M21.7998 96.5C24.2851 96.5 26.2998 94.4853 26.2998 92C26.2998 89.5147 24.2851 87.5 21.7998 87.5C19.3145 87.5 17.2998 89.5147 17.2998 92C17.2998 94.4853 19.3145 96.5 21.7998 96.5Z" stroke="#3CBAB6" stroke-width="2" stroke-miterlimit="10"/>
<path d="M152.4 102.8C154.168 102.8 155.6 101.368 155.6 99.6004C155.6 97.8331 154.168 96.4004 152.4 96.4004C150.633 96.4004 149.2 97.8331 149.2 99.6004C149.2 101.368 150.633 102.8 152.4 102.8Z" fill="#D65C81"/>
<path d="M161.7 117.6C163.688 117.6 165.3 115.989 165.3 114C165.3 112.012 163.688 110.4 161.7 110.4C159.712 110.4 158.1 112.012 158.1 114C158.1 115.989 159.712 117.6 161.7 117.6Z" stroke="#5972B4" stroke-width="2" stroke-miterlimit="10"/>
<path d="M38.5 70.6001H45.6" stroke="#F2D367" stroke-width="2" stroke-miterlimit="10" stroke-linecap="round" stroke-linejoin="round"/>
<path d="M42.1001 66.2002V75.0002" stroke="#F2D367" stroke-width="2" stroke-miterlimit="10" stroke-linecap="round" stroke-linejoin="round"/>
<path d="M108.2 62.1001H114.4" stroke="#F2D367" stroke-width="2" stroke-miterlimit="10" stroke-linecap="round" stroke-linejoin="round"/>
<path d="M111.3 58.3003V65.9003" stroke="#F2D367" stroke-width="2" stroke-miterlimit="10" stroke-linecap="round" stroke-linejoin="round"/>
</g>
<defs>
<clipPath id="clip0_1298_7820">
<rect width="180" height="180" fill="white"/>
</clipPath>
</defs>
</svg>
