<svg width="34" height="14" viewBox="0 0 34 14" fill="none" xmlns="http://www.w3.org/2000/svg">
<path d="M1.136 13.24C0.912 13.24 0.8 13.1333 0.8 12.92V4.264C0.8 4.05067 0.906667 3.944 1.12 3.944H3.824C4.048 3.944 4.16 4.05067 4.16 4.264V5.64H7.616C7.81867 5.64 7.92 5.74667 7.92 5.96V7.832C7.92 8.056 7.81867 8.168 7.616 8.168H4.16V10.456H8.336C8.53867 10.456 8.64 10.5627 8.64 10.776V12.904C8.64 13.128 8.53867 13.24 8.336 13.24H1.136ZM0.8 3.464C0.576 3.464 0.464 3.35733 0.464 3.144V0.999999C0.464 0.786666 0.576 0.679999 0.8 0.679999H8.224C8.43733 0.679999 8.544 0.786666 8.544 0.999999V3.128C8.544 3.352 8.43733 3.464 8.224 3.464H0.8ZM9.21325 1.064C9.15992 0.946666 9.15458 0.856 9.19725 0.792C9.25058 0.717333 9.34125 0.679999 9.46925 0.679999H12.5093C12.7013 0.679999 12.8346 0.765333 12.9093 0.936L19.4213 12.872C19.4746 12.9893 19.4746 13.08 19.4213 13.144C19.3786 13.2187 19.2933 13.256 19.1653 13.256H16.1253C15.9333 13.256 15.7999 13.1707 15.7253 13L9.21325 1.064ZM12.8773 13C12.8026 13.1707 12.6693 13.256 12.4773 13.256H9.40525C9.27725 13.256 9.18658 13.2187 9.13325 13.144C9.09058 13.08 9.09592 12.9893 9.14925 12.872L11.9493 7.848C12.0879 7.61333 12.2319 7.61333 12.3813 7.848L13.8693 10.568C13.9226 10.6427 13.9439 10.7227 13.9333 10.808C13.9333 10.8827 13.9173 10.952 13.8853 11.016L12.8773 13ZM15.5973 0.936C15.6719 0.765333 15.8053 0.679999 15.9973 0.679999H19.0853C19.2133 0.679999 19.2986 0.717333 19.3413 0.792C19.3946 0.856 19.3946 0.946666 19.3413 1.064L16.6693 6.024C16.6053 6.14133 16.5306 6.2 16.4453 6.2C16.3706 6.2 16.3013 6.14133 16.2373 6.024L14.7653 3.336C14.6799 3.18667 14.6746 3.03733 14.7493 2.888L15.5973 0.936ZM23.4569 12.904C23.4569 13.128 23.3502 13.24 23.1369 13.24H20.4169C20.2035 13.24 20.0969 13.128 20.0969 12.904V0.983999C20.0969 0.781333 20.2035 0.679999 20.4169 0.679999H23.1209C23.3449 0.679999 23.4569 0.781333 23.4569 0.983999V12.904ZM30.23 12.936C30.23 13.1387 30.118 13.24 29.894 13.24H27.19C26.9767 13.24 26.87 13.1387 26.87 12.936V4.52C26.87 4.31733 26.9767 4.216 27.19 4.216H29.894C30.118 4.216 30.23 4.31733 30.23 4.52V12.936ZM24.374 3.736C24.1713 3.736 24.07 3.62933 24.07 3.416V1.016C24.07 0.791999 24.1713 0.679999 24.374 0.679999H32.726C32.9287 0.679999 33.03 0.791999 33.03 1.016V3.416C33.03 3.62933 32.9287 3.736 32.726 3.736H24.374Z" fill="black"/>
</svg>
