<svg width="20" height="18" viewBox="0 0 20 18" fill="none" xmlns="http://www.w3.org/2000/svg">
<path d="M9.21607 15.9593L9.21462 15.958C6.6192 13.6494 4.54709 11.8037 3.11178 10.0823C1.68733 8.37403 1 6.91422 1 5.3951C1 2.94419 2.95404 1 5.5 1C6.94434 1 8.34086 1.66437 9.24485 2.70569L10 3.57556L10.7551 2.70569C11.6591 1.66437 13.0557 1 14.5 1C17.046 1 19 2.94419 19 5.3951C19 6.91423 18.3127 8.37409 16.888 10.0838C15.4527 11.8064 13.3809 13.6542 10.7858 15.9675C10.7854 15.9678 10.785 15.9682 10.7846 15.9685L10.0025 16.6616L9.21607 15.9593Z" fill="#6B53DD" fill-opacity="0.5" stroke="#6B53DD" stroke-width="2"/>
</svg>
