<svg width="20" height="20" viewBox="0 0 20 20" fill="none" xmlns="http://www.w3.org/2000/svg">
    <g clip-path="url(#clip0_504_5467)">
        <path d="M10.9248 4.76675L10.4498 7.17508C10.3498 7.66675 10.4832 8.17508 10.7998 8.55841C11.1165 8.94175 11.5832 9.16675 12.0832 9.16675H16.6665V10.0667L14.5248 15.0001H7.78317C7.63317 15.0001 7.49984 14.8667 7.49984 14.7167V8.18341L10.9248 4.76675ZM11.6665 1.66675L6.32484 7.00841C6.00817 7.32508 5.83317 7.75008 5.83317 8.19175V14.7167C5.83317 15.7917 6.70817 16.6667 7.78317 16.6667H14.5332C15.1248 16.6667 15.6665 16.3584 15.9665 15.8584L18.1915 10.7334C18.2832 10.5251 18.3332 10.3001 18.3332 10.0667V9.16675C18.3332 8.25008 17.5832 7.50008 16.6665 7.50008H12.0832L12.8498 3.62508C12.8915 3.44175 12.8665 3.24175 12.7832 3.07508C12.5915 2.70008 12.3498 2.35841 12.0498 2.05841L11.6665 1.66675ZM3.33317 7.50008H1.6665V16.6667H3.33317C3.7915 16.6667 4.1665 16.2917 4.1665 15.8334V8.33341C4.1665 7.87508 3.7915 7.50008 3.33317 7.50008Z" fill="current"/>
    </g>
    <defs>
        <clipPath id="clip0_504_5467">
            <rect width="20" height="20" fill="current"/>
        </clipPath>
    </defs>
</svg>
