<svg width="16" height="16" viewBox="0 0 28 28" fill="none" xmlns="http://www.w3.org/2000/svg">
    <path fill-rule="evenodd" clip-rule="evenodd" d="M7.29167 8.50423V8.16683C7.29167 6.05632 7.92919 4.34639 9.16044 3.16822C10.3851 1.99634 12.0845 1.4585 14 1.4585C15.9155 1.4585 17.6149 1.99634 18.8396 3.16822C20.0708 4.34639 20.7083 6.05632 20.7083 8.16683V8.50423C22.9063 9.31886 24.5 11.519 24.5 14.1159C24.5 18.5939 21.0369 21.177 18.0884 23.3764C17.782 23.605 17.4811 23.8294 17.1902 24.0514C16.1 24.8834 15.05 25.6668 14 25.6668C12.95 25.6668 11.9 24.8834 10.8098 24.0514C10.5189 23.8294 10.218 23.605 9.91159 23.3764C6.96309 21.177 3.5 18.5939 3.5 14.1159C3.5 11.519 5.09371 9.31886 7.29167 8.50423ZM9.04167 8.16683C9.04167 6.41135 9.56354 5.20461 10.3703 4.43261C11.1837 3.65432 12.4009 3.2085 14 3.2085C15.5991 3.2085 16.8163 3.65432 17.6297 4.43261C18.4365 5.20461 18.9583 6.41135 18.9583 8.16683V8.16839C17.3657 8.13023 15.621 8.78869 14 10.4192C12.379 8.78869 10.6343 8.13023 9.04167 8.16839V8.16683ZM14 13.1252C14.4832 13.1252 14.875 13.5169 14.875 14.0002V16.9168C14.875 17.4001 14.4832 17.7918 14 17.7918C13.5168 17.7918 13.125 17.4001 13.125 16.9168V14.0002C13.125 13.5169 13.5168 13.1252 14 13.1252Z" fill="current"/>
</svg>