<svg width="152" height="152" viewBox="0 0 152 152" fill="none" xmlns="http://www.w3.org/2000/svg">
<path d="M121.434 25.7688C121.434 25.7688 120.021 23.5956 117.099 23.1325C113.466 22.5625 109.879 23.2156 108.728 28.4881C107.588 33.7369 107.006 40.4938 112.872 45.2081L103.847 47.7375L96.1163 38.3682C96.1163 38.3682 99.1088 39.5081 99.5125 37.2875C100.011 34.5681 100.011 32.11 100.664 27.9419C101.353 23.5838 102.719 19.0238 106.899 16.6131C109.179 15.295 112.813 14.5469 114.012 13.585C114.938 12.8369 115.188 10.4381 115.591 7.83752L122.028 12.7775L124.046 21.565L121.434 25.7688Z" fill="#D7598B"/>
<path d="M127.526 28.4406C135.35 28.4406 141.693 22.0979 141.693 14.2737C141.693 6.4496 135.35 0.106873 127.526 0.106873C119.701 0.106873 113.359 6.4496 113.359 14.2737C113.359 22.0979 119.701 28.4406 127.526 28.4406Z" fill="#FCC21B"/>
<path d="M30.5662 25.7688C30.5662 25.7688 31.9794 23.5956 34.9006 23.1325C38.5344 22.5625 42.1206 23.2156 43.2725 28.4881C44.4125 33.7369 45.0063 40.4938 39.1281 45.2081L48.1531 47.7375L55.8838 38.3682C55.8838 38.3682 52.8913 39.5081 52.4875 37.2875C51.9888 34.5681 51.9887 32.11 51.3356 27.9419C50.635 23.5838 49.2812 19.0238 45.1012 16.6131C42.8212 15.295 39.1875 14.5469 37.9881 13.585C37.0619 12.8369 36.8125 10.4381 36.4087 7.83752L29.9725 12.7775L27.9538 21.565L30.5662 25.7688Z" fill="#D7598B"/>
<path d="M24.4744 28.4406C32.2985 28.4406 38.6413 22.0979 38.6413 14.2737C38.6413 6.4496 32.2985 0.106873 24.4744 0.106873C16.6502 0.106873 10.3075 6.4496 10.3075 14.2737C10.3075 22.0979 16.6502 28.4406 24.4744 28.4406Z" fill="#FCC21B"/>
<path d="M127.407 135.47C126.896 132.394 127.431 128.939 127.977 126.172C128.951 121.196 130.72 116.411 132.466 111.673C133.024 110.141 133.594 108.609 134.128 107.077C135.909 101.947 136.883 96.5081 136.883 90.8438C136.883 60.5981 116.957 36.0881 76.0119 36.0881C35.0669 36.0881 15.1406 60.61 15.1406 90.8438C15.1406 96.1281 15.9837 101.223 17.5512 106.056C20.4962 115.128 25.2581 124.165 24.9494 133.938C24.7713 139.804 21.4225 142.809 17.3137 146.336C16.0431 147.428 15.8056 149.209 17.4087 150.124C21.09 152.238 27.2887 149.898 30.8631 148.461C34.0575 147.179 37.05 144.982 39.5437 142.429C40.8263 141.123 42.0137 139.733 43.1894 138.344C44.1631 137.204 45.7781 134.283 47.6306 135.114C51.6681 136.931 46.9419 144.448 44.8994 146.253C44.0681 146.989 42.94 147.654 42.56 148.77C42.1325 149.993 42.9994 151.062 44.1037 151.501C47.1912 152.736 53.9362 150.646 57.0238 148.58C59.2325 147.096 61.0731 145.196 62.6169 143.023C63.5788 141.669 65.2412 137.394 67.3906 137.904C71.3331 138.854 69.6706 145.065 69.9319 147.761C70.0625 149.138 70.8581 150.516 72.2356 151.05C75.2281 152.226 77.8644 150.112 79.6219 147.927C81.5813 145.493 82.5194 142.797 84.0512 140.161C85.2744 138.035 87.4119 137.596 88.9437 139.793C91.1763 142.987 92.5537 146.027 96.1044 148.058C99.0256 149.72 102.398 150.753 105.771 150.777C107.255 150.777 113.834 149.993 111.613 147.084C110.639 145.825 108.775 145.516 107.504 144.578C105.414 143.023 104.452 140.446 104.381 137.904C104.286 134.283 107.789 135.209 109.511 136.954C112.302 139.781 113.964 143.794 117.562 145.73C121.873 148.046 128.594 149.174 133.344 147.713C134.959 147.214 136.812 146.514 136.919 144.566C137.026 142.726 135.458 142.286 133.986 141.871C132.098 141.348 130.791 140.873 129.342 139.424C128.25 138.379 127.656 136.954 127.407 135.47Z" fill="#D7598B"/>
<path d="M85.5475 95.8669L107.184 85.5237C107.184 85.5237 110.2 90.1906 109.464 95.6887C109.012 98.9781 106.827 102.814 101.923 104.452C97.5056 105.925 93.8719 105.414 91.4969 104.357C85.8325 101.852 85.5475 95.8669 85.5475 95.8669ZM65.7875 95.8669L44.1512 85.5237C44.1512 85.5237 41.135 90.1906 41.8712 95.6887C42.3225 98.9781 44.5194 102.814 49.4119 104.452C53.8294 105.925 57.4631 105.414 59.8381 104.357C65.5144 101.852 65.7875 95.8669 65.7875 95.8669Z" fill="#BDCF46"/>
<path d="M88.8844 112.753C88.445 111.269 86.9131 109.986 85.3575 109.927C83.4931 109.856 82.3056 111.601 80.9281 112.563C79.3369 113.679 77.3538 114.475 75.3825 114.297C72.9956 114.071 71.7369 112.468 69.9081 111.162C68.2456 109.986 66.1675 109.974 64.695 111.518C63.9944 112.254 63.6144 113.264 63.6737 114.285C63.745 115.627 64.6356 116.992 65.5856 117.883C69.3144 121.41 75.1094 122.182 79.9306 120.947C83.2912 120.08 90.2975 117.467 88.8844 112.753Z" fill="#2F2F2F"/>
</svg>
