<svg width="180" height="180" viewBox="0 0 180 180" fill="none" xmlns="http://www.w3.org/2000/svg">
<g opacity="0.4">
<path d="M93.0998 158.9C132.202 158.9 163.9 150.573 163.9 140.3C163.9 130.028 132.202 121.7 93.0998 121.7C53.998 121.7 22.2998 130.028 22.2998 140.3C22.2998 150.573 53.998 158.9 93.0998 158.9Z" fill="#E6E6E6"/>
<path d="M151.8 118.8C154.119 118.8 156 116.919 156 114.6C156 112.28 154.119 110.4 151.8 110.4C149.48 110.4 147.6 112.28 147.6 114.6C147.6 116.919 149.48 118.8 151.8 118.8Z" fill="#F9CB38"/>
<path d="M161.2 138.8C164.182 138.8 166.6 136.382 166.6 133.4C166.6 130.418 164.182 128 161.2 128C158.217 128 155.8 130.418 155.8 133.4C155.8 136.382 158.217 138.8 161.2 138.8Z" stroke="#5972B4" stroke-width="2" stroke-miterlimit="10"/>
<path d="M25.4998 120L22.2998 123.2" stroke="#62B7D1" stroke-width="3" stroke-miterlimit="10" stroke-linecap="round"/>
<path d="M17.1004 128.4L13.9004 131.6" stroke="#62B7D1" stroke-width="3" stroke-miterlimit="10" stroke-linecap="round"/>
<path d="M13.9004 120L17.1004 123.2" stroke="#62B7D1" stroke-width="3" stroke-miterlimit="10" stroke-linecap="round"/>
<path d="M22.2998 128.4L25.4998 131.6" stroke="#62B7D1" stroke-width="3" stroke-miterlimit="10" stroke-linecap="round"/>
<path d="M28.2004 159.5C31.9559 159.5 35.0004 156.455 35.0004 152.7C35.0004 148.944 31.9559 145.9 28.2004 145.9C24.4449 145.9 21.4004 148.944 21.4004 152.7C21.4004 156.455 24.4449 159.5 28.2004 159.5Z" stroke="#EE658A" stroke-width="3" stroke-miterlimit="10"/>
<path d="M59.3002 32.5999C62.6691 32.5999 65.4002 29.8688 65.4002 26.4999C65.4002 23.131 62.6691 20.3999 59.3002 20.3999C55.9313 20.3999 53.2002 23.131 53.2002 26.4999C53.2002 29.8688 55.9313 32.5999 59.3002 32.5999Z" fill="black"/>
<path d="M93.1 32.5999C96.4689 32.5999 99.2 29.8688 99.2 26.4999C99.2 23.131 96.4689 20.3999 93.1 20.3999C89.7311 20.3999 87 23.131 87 26.4999C87 29.8688 89.7311 32.5999 93.1 32.5999Z" fill="black"/>
<path d="M126.9 32.5999C130.269 32.5999 133 29.8688 133 26.4999C133 23.131 130.269 20.3999 126.9 20.3999C123.531 20.3999 120.8 23.131 120.8 26.4999C120.8 29.8688 123.531 32.5999 126.9 32.5999Z" fill="black"/>
<path d="M139.5 126.2C139 101 118.4 80.7998 93.1002 80.7998C67.8002 80.7998 47.2002 101 46.7002 126.2C46.7002 126.5 46.7002 126.9 46.7002 127.2C46.7002 138.2 50.5002 148.3 56.9002 156.3C67.5002 158 79.9002 158.9 93.1002 158.9C106.3 158.9 118.7 157.9 129.3 156.3C135.7 148.3 139.5 138.2 139.5 127.2C139.5 126.9 139.5 126.6 139.5 126.2Z" fill="#B4E100"/>
<path d="M82.4 126.4C80.6 126.4 79 124.8 79 123V112.9C79 111.1 80.6 109.5 82.4 109.5C84.2 109.5 85.8 111.1 85.8 112.9V123C85.7 125 84.2 126.4 82.4 126.4Z" fill="black"/>
<path d="M103.8 126.4C102 126.4 100.4 124.8 100.4 123V112.9C100.4 111.1 102 109.5 103.8 109.5C105.6 109.5 107.2 111.1 107.2 112.9V123C107.1 124.8 105.6 126.4 103.8 126.4Z" fill="black"/>
<path d="M93.0992 84.2998C116.199 84.2998 135.099 102.6 135.999 125.5C138.499 126 140.799 126.5 142.999 127.1C142.899 99.5998 120.599 77.2998 93.0992 77.2998C65.5992 77.2998 43.1992 99.5998 43.1992 127.1C45.3992 126.5 47.7992 126 50.1992 125.5C51.0992 102.6 69.9992 84.2998 93.0992 84.2998Z" fill="black"/>
<path d="M50.0996 127.2C50.0996 126.6 50.0996 126 50.0996 125.4C47.5996 125.9 45.2996 126.4 43.0996 127V127.1C43.0996 137.6 46.2996 147.3 51.8996 155.3C55.1996 155.9 58.5996 156.5 62.1996 156.9C54.7996 149.3 50.0996 138.8 50.0996 127.2Z" fill="black"/>
<path d="M142.999 127.1C140.799 126.5 138.399 126 135.999 125.5C135.999 126.1 135.999 126.7 135.999 127.3C135.999 138.9 131.399 149.4 123.899 157.1C127.499 156.6 130.999 156.1 134.199 155.5C139.699 147.5 142.999 137.8 142.999 127.3C142.999 127.2 142.999 127.1 142.999 127.1Z" fill="black"/>
<path d="M117.8 74.5L119.8 72.2C121.2 70.6 123.6 70.4 125.2 71.8C126.8 73.2 127 75.6 125.6 77.2L123.6 79.5" stroke="#5FCAFF" stroke-width="2" stroke-miterlimit="10" stroke-linecap="round" stroke-linejoin="round"/>
<path d="M126.9 82.2998L128.9 79.9998C130.3 78.3998 132.7 78.1998 134.3 79.5998C135.9 80.9998 136.1 83.3998 134.7 84.9998L132.7 87.2998" stroke="#5FCAFF" stroke-width="2" stroke-miterlimit="10" stroke-linecap="round" stroke-linejoin="round"/>
<path d="M136 90.1001L138 87.8001C139.4 86.2001 141.8 86.0001 143.4 87.4001C145 88.8001 145.2 91.2001 143.8 92.8001L141.8 95.1001" stroke="#5FCAFF" stroke-width="2" stroke-miterlimit="10" stroke-linecap="round" stroke-linejoin="round"/>
<path d="M125.8 65.2998L127.8 62.9998C129.2 61.3998 131.6 61.1998 133.2 62.5998C134.8 63.9998 135 66.3998 133.6 67.9998L131.6 70.2998" stroke="#5FCAFF" stroke-width="2" stroke-miterlimit="10" stroke-linecap="round" stroke-linejoin="round"/>
<path d="M134.9 73.1001L136.9 70.8001C138.3 69.2001 140.7 69.0001 142.3 70.4001C143.9 71.8001 144.1 74.2001 142.7 75.8001L140.7 78.1001" stroke="#5FCAFF" stroke-width="2" stroke-miterlimit="10" stroke-linecap="round" stroke-linejoin="round"/>
<path d="M143.9 80.8999L145.9 78.5999C147.3 76.9999 149.7 76.7999 151.3 78.1999C152.9 79.5999 153.1 81.9999 151.7 83.5999L149.7 85.8999" stroke="#5FCAFF" stroke-width="2" stroke-miterlimit="10" stroke-linecap="round" stroke-linejoin="round"/>
<path d="M138.4 60L140.4 57.7C141.8 56.1 144.2 55.9 145.8 57.3C147.4 58.7 147.6 61.1 146.2 62.7L144.2 65" stroke="#5FCAFF" stroke-width="2" stroke-miterlimit="10" stroke-linecap="round" stroke-linejoin="round"/>
<path d="M147.5 67.8999L149.5 65.5999C150.9 63.9999 153.3 63.7999 154.9 65.1999C156.5 66.5999 156.7 68.9999 155.3 70.5999L153.3 72.8999" stroke="#5FCAFF" stroke-width="2" stroke-miterlimit="10" stroke-linecap="round" stroke-linejoin="round"/>
<path d="M54.5996 60.8999C54.7996 61.3999 54.8996 61.7999 54.9996 62.2999" stroke="#B3B3B3" stroke-width="2" stroke-linecap="round" stroke-linejoin="round"/>
<path d="M55.0998 65.3999C54.4998 70.5999 51.0998 76.4999 48.1998 77.4999C42.9998 79.3999 37.9998 75.4999 39.4998 71.7999C40.5998 68.9999 44.6998 68.7999 47.4998 72.3999C50.0998 75.7999 47.5998 80.5999 44.2998 83.7999C41.5998 86.2999 39.1998 87.8999 34.7998 87.3999" stroke="#B3B3B3" stroke-width="2" stroke-linecap="round" stroke-linejoin="round" stroke-dasharray="3.1 3.1"/>
<path d="M33.0996 87.0998C32.5996 86.9998 32.0996 86.8998 31.5996 86.7998" stroke="#B3B3B3" stroke-width="2" stroke-linecap="round" stroke-linejoin="round"/>
<path d="M39.6 109.1C39.5 109.1 39.5 109.1 39.4 109.1C30.8 107.6 25.4 104.8 23.4 100.7C21.5 97 23.2 93.6 23.3 93.5C23.5 93.2 23.8 93 24.1 93C24.7 93 25.2 93 25.7 93C31 93 35 94.5 37.5 97.5C41.4 102 40.5 108.1 40.5 108.4C40.5 108.7 40.3 108.9 40.1 109.1C40 109 39.8 109.1 39.6 109.1Z" fill="#52B15D"/>
<path d="M25.8003 93.8999C41.7003 93.8999 39.6003 108.1 39.6003 108.1C18.7003 104.5 24.2003 93.8999 24.2003 93.8999C24.7003 93.8999 25.3003 93.8999 25.8003 93.8999ZM25.8003 91.8999C25.3003 91.8999 24.7003 91.8999 24.1003 91.8999C23.4003 91.8999 22.8003 92.2999 22.4003 92.9999C22.3003 93.1999 20.4003 96.8999 22.5003 101.1C24.7003 105.5 30.3003 108.5 39.2003 110.1C39.3003 110.1 39.4003 110.1 39.5003 110.1C39.9003 110.1 40.3003 110 40.7003 109.7C41.1003 109.4 41.4003 108.9 41.5003 108.4C41.5003 108.1 42.4003 101.5 38.3003 96.6999C35.6003 93.4999 31.4003 91.8999 25.8003 91.8999Z" fill="black"/>
<path d="M22.8002 92.9002C21.9002 92.2002 21.3002 91.2002 21.1002 90.4002C20.9002 89.7002 21.0002 89.0002 21.2002 88.2002" stroke="black" stroke-width="2" stroke-miterlimit="10" stroke-linecap="round" stroke-linejoin="round"/>
<path d="M23.0996 93C24.2996 93.8 25.4996 94.7 26.7996 95.8C28.7996 97.5 30.4996 99.1 31.7996 100.7" fill="#52B15D"/>
<path d="M23.0996 93C24.2996 93.8 25.4996 94.7 26.7996 95.8C28.7996 97.5 30.4996 99.1 31.7996 100.7" stroke="black" stroke-width="2" stroke-miterlimit="10" stroke-linecap="round" stroke-linejoin="round"/>
</g>
</svg>
