<svg width="24" height="24" viewBox="0 0 24 24" fill="none" xmlns="http://www.w3.org/2000/svg">
<circle cx="12" cy="12" r="11" fill="white" stroke="#6B53DD" stroke-width="2"/>
<path d="M7.35711 14.4994C7.35711 15.1209 7.34691 15.9143 7.21162 16.523C7.11758 16.9463 7 17.4513 7 17.8854C7 18.4357 7.17105 18.1636 7.60842 17.9449C8.43364 17.5323 9.37899 17.2515 10.1545 16.8206C10.3904 16.6896 11.3687 16.7316 10.9018 16.3114C10.4425 15.8981 9.88041 15.4594 9.28818 15.2401C8.89628 15.0949 8.34376 14.8994 8.07134 14.5589C7.55454 13.9129 8.76369 13.1904 9.19559 12.7138C10.1839 11.6233 11.1054 10.574 11.7615 9.26172C11.9512 8.88233 12.2408 8.47698 12.3567 8.07134C12.4353 7.79635 12.4964 7.44187 12.7403 7.26453C13.0412 7.04569 14.2023 7.16528 14.5986 7.12565C14.8813 7.09738 15.0997 7 15.3922 7C15.8281 7 16.1185 7.84806 16.3445 8.12425C16.4495 8.25262 16.7611 8.48795 16.7611 8.66653C16.7611 9.18995 16.2239 9.91754 15.9279 10.3066C15.0565 11.4518 14.0303 12.5877 13.0114 13.6066C12.3718 14.2462 12.0208 15.1819 11.5234 15.9279" stroke="black" stroke-linecap="round"/>
</svg>
