<svg width="7" height="12" viewBox="0 0 7 12" fill="none" xmlns="http://www.w3.org/2000/svg">
<path d="M3.86668 5.26667C2.35335 4.87333 1.86668 4.46667 1.86668 3.83333C1.86668 3.10667 2.54001 2.6 3.66668 2.6C4.85335 2.6 5.29335 3.16667 5.33335 4H6.80668C6.76002 2.85333 6.06002 1.8 4.66668 1.46V0H2.66668V1.44C1.37335 1.72 0.333348 2.56 0.333348 3.84667C0.333348 5.38667 1.60668 6.15333 3.46668 6.6C5.13335 7 5.46668 7.58667 5.46668 8.20667C5.46668 8.66667 5.14002 9.4 3.66668 9.4C2.29335 9.4 1.75335 8.78667 1.68002 8H0.213348C0.293348 9.46 1.38668 10.28 2.66668 10.5533V12H4.66668V10.5667C5.96668 10.32 7.00002 9.56667 7.00002 8.2C7.00002 6.30667 5.38002 5.66 3.86668 5.26667Z" fill="black"/>
</svg>
