<svg width="16" height="16" viewBox="0 0 28 28" fill="none" xmlns="http://www.w3.org/2000/svg">
    <path d="M10.6786 6.30993C12.1564 3.65898 12.8952 2.3335 13.9999 2.3335C15.1046 2.3335 15.8435 3.65897 17.3212 6.30993L17.7035 6.99577C18.1235 7.74909 18.3334 8.12575 18.6608 8.37427C18.9882 8.6228 19.3959 8.71505 20.2114 8.89955L20.9538 9.06753C23.8234 9.71681 25.2582 10.0415 25.5996 11.1392C25.941 12.2369 24.9628 13.3807 23.0065 15.6684L22.5003 16.2603C21.9444 16.9103 21.6665 17.2354 21.5414 17.6375C21.4164 18.0396 21.4584 18.4733 21.5424 19.3406L21.619 20.1303C21.9147 23.1825 22.0626 24.7086 21.1689 25.3871C20.2752 26.0655 18.9318 25.447 16.245 24.2099L15.5499 23.8898C14.7863 23.5383 14.4046 23.3625 13.9999 23.3625C13.5953 23.3625 13.2135 23.5383 12.45 23.8898L11.7549 24.2099C9.06804 25.447 7.72462 26.0655 6.83093 25.3871C5.93723 24.7086 6.08511 23.1825 6.38088 20.1303L6.4574 19.3406C6.54145 18.4733 6.58347 18.0396 6.45843 17.6375C6.33338 17.2354 6.05542 16.9103 5.49949 16.2603L4.99337 15.6684C3.03704 13.3807 2.05888 12.2369 2.40024 11.1392C2.74161 10.0415 4.17642 9.71681 7.04604 9.06753L7.78845 8.89955C8.60391 8.71505 9.01164 8.6228 9.33902 8.37427C9.6664 8.12575 9.87637 7.74909 10.2963 6.99577L10.6786 6.30993Z" fill="current"/>
</svg>
