<svg width="16" height="16" viewBox="0 0 16 16" fill="none" xmlns="http://www.w3.org/2000/svg">
<g clip-path="url(#clip0_481_5305)">
<g clip-path="url(#clip1_481_5305)">
<path d="M14.2733 7.71992L8.27334 1.71992C8.03334 1.47992 7.70001 1.33325 7.33334 1.33325H2.66668C1.93334 1.33325 1.33334 1.93325 1.33334 2.66659V7.33325C1.33334 7.69992 1.48001 8.03325 1.72668 8.27992L7.72668 14.2799C7.96668 14.5199 8.30001 14.6666 8.66668 14.6666C9.03334 14.6666 9.36668 14.5199 9.60668 14.2733L14.2733 9.60658C14.52 9.36658 14.6667 9.03325 14.6667 8.66658C14.6667 8.29992 14.5133 7.95992 14.2733 7.71992ZM3.66668 4.66658C3.11334 4.66658 2.66668 4.21992 2.66668 3.66659C2.66668 3.11325 3.11334 2.66659 3.66668 2.66659C4.22001 2.66659 4.66668 3.11325 4.66668 3.66659C4.66668 4.21992 4.22001 4.66658 3.66668 4.66658Z" fill="black"/>
</g>
</g>
<defs>
<clipPath id="clip0_481_5305">
<rect width="16" height="16" fill="white"/>
</clipPath>
<clipPath id="clip1_481_5305">
<rect width="16" height="16" fill="white"/>
</clipPath>
</defs>
</svg>
